<svg width="68" height="68" viewBox="0 0 68 68" fill="none" xmlns="http://www.w3.org/2000/svg">
<circle cx="34" cy="34" r="34" fill="#008561"/>
<path d="M42.9657 24.2601C42.9657 26.5785 41.9389 28.6282 40.2571 30.2318C38.3895 32.0145 35.6809 32.4623 35.6809 33.9763C35.6809 36.0261 39.1365 35.4025 42.4523 38.5675C44.6475 40.6628 46 43.4256 46 46.6345C46 52.9628 40.6767 58 34.0009 58C27.3233 57.9983 22 52.9678 22 46.6362C22 43.4273 23.3543 40.6645 25.5495 38.5692C28.8635 35.4059 32.3191 36.0294 32.3191 33.9797C32.3191 32.464 29.6105 32.0179 27.7429 30.2352C26.0611 28.6299 25.0343 26.5802 25.0343 24.1739C25.0343 19.5388 29.0033 15.7943 33.8593 15.7943C34.794 15.7943 35.6349 15.9295 36.3341 15.9295C37.5964 15.9295 38.2496 15.3938 38.2496 14.5472C38.2496 14.0572 38.0159 13.432 38.0159 12.7645C38.0159 11.2488 39.3702 10 41.0042 10C42.6382 10 43.9464 11.2927 43.9464 12.8524C43.9464 14.5016 42.5922 15.2603 41.5654 15.6168C40.7245 15.8838 40.0695 16.2404 40.0695 17.043C40.0695 18.5537 42.9657 20.0255 42.9657 24.2601ZM42.031 46.6379C42.031 42.2276 38.6231 38.6604 34.0009 38.6604C29.3769 38.6604 25.969 42.2259 25.969 46.6379C25.969 51.006 29.3769 54.6171 34.0009 54.6171C38.6214 54.6171 42.031 51.0009 42.031 46.6379ZM39.2782 24.1705C39.2782 21.3638 36.8971 19.0454 34.0027 19.0454C31.1064 19.0454 28.7272 21.3638 28.7272 24.1705C28.7272 26.979 31.1064 29.2973 34.0027 29.2973C36.8971 29.2973 39.2782 26.979 39.2782 24.1705Z" fill="white"/>
</svg>
