<svg width="68" height="68" viewBox="0 0 68 68" fill="none" xmlns="http://www.w3.org/2000/svg">
<circle cx="34" cy="34" r="34" fill="#0B65C3"/>
<path d="M19.2866 29.2125V49.1581H25.9582V29.2125H19.2866Z" fill="white"/>
<path d="M20.4914 24.6273C21.1166 25.0665 21.8578 25.3124 22.6224 25.3341C23.6685 25.346 24.6767 24.9447 25.4268 24.218C26.1769 23.4913 26.6078 22.4982 26.6253 21.4558C26.625 20.6936 26.3993 19.9483 25.9764 19.3131C25.5535 18.678 24.9521 18.1811 24.2474 17.8846C23.5428 17.588 22.766 17.505 22.0143 17.6459C21.2626 17.7868 20.5691 18.1453 20.0207 18.6767C19.4723 19.208 19.0931 19.8887 18.9306 20.6336C18.7681 21.3784 18.8295 22.1545 19.1071 22.8648C19.3847 23.5751 19.8662 24.1882 20.4914 24.6273Z" fill="white"/>
<path d="M43.7491 49.1581H50.4207L50.3318 37.102C50.3318 30.8968 46.3066 28.9908 42.8596 28.9908C41.6759 28.9524 40.5022 29.2175 39.4508 29.7608C38.3995 30.3041 37.5057 31.1073 36.8551 32.0935V29.2125H30.4059V49.1581H37.0775V38.8085C37.0665 38.7054 37.0665 38.6014 37.0775 38.4982C37.0413 37.9916 37.1058 37.4828 37.2674 37.0011C37.429 36.5193 37.6845 36.0742 38.0193 35.6911C38.3541 35.3081 38.7615 34.9948 39.2181 34.7691C39.6747 34.5434 40.1716 34.4099 40.6802 34.3761C42.4148 34.3761 43.7491 35.5064 43.7491 38.6534V49.1581Z" fill="white"/>
</svg>
