<svg width="68" height="68" viewBox="0 0 68 68" fill="none" xmlns="http://www.w3.org/2000/svg">
<circle cx="34" cy="34" r="34" fill="#005F5D"/>
<g clip-path="url(#clip0_511_9133)">
<path d="M22.0618 43.2335C22.7659 43.2335 23.369 42.8075 23.8696 41.9539C28.449 33.8335 30.8312 29.6066 31.0172 29.2717L26.4564 21.3185C25.9742 20.4841 25.3622 20.0669 24.6211 20.0669H17.9739C17.5468 20.0669 17.251 20.2059 17.0839 20.4841C16.8797 20.7622 16.8891 21.1054 17.1115 21.5127L21.5889 29.2717C21.6071 29.2914 21.6071 29.2999 21.5889 29.2999L14.5527 41.7596C14.3679 42.1127 14.3679 42.4461 14.5527 42.7602C14.7376 43.0763 15.0256 43.2335 15.4147 43.2335H22.0618Z" fill="white"/>
<path d="M52.5703 11H45.868C45.1451 11 44.5514 11.4172 44.0884 12.2516C34.5769 29.1237 29.6542 37.8571 29.3203 38.4493L38.748 55.7485C39.1928 56.5828 39.8048 57 40.5833 57H47.23C47.6377 57 47.9346 56.8609 48.12 56.5828C48.3048 56.2667 48.296 55.9235 48.0924 55.5532L38.7485 38.4493V38.4222L53.4328 12.4463C53.6364 12.0573 53.6364 11.7151 53.4328 11.4177C53.2656 11.1391 52.9781 11 52.5703 11Z" fill="white"/>
</g>
<defs>
<clipPath id="clip0_511_9133">
<rect width="46" height="46" fill="white" transform="translate(11 11)"/>
</clipPath>
</defs>
</svg>
