<svg width="180" height="235" viewBox="0 0 180 235" fill="none" xmlns="http://www.w3.org/2000/svg">
  <path d="M150.162 16.9336H14.5997C10.9667 16.939 7.48366 18.789 4.91472 22.0777C2.34577 25.3665 0.900682 29.8255 0.896484 34.4766V246.001H160.174C161.482 246.006 162.763 245.529 163.865 244.627V34.4766C163.861 29.8255 162.416 25.3665 159.847 22.0778C157.278 18.789 153.795 16.939 150.162 16.9336Z" fill="#939393"/>
  <path d="M98.2769 28.3281H24.6607C21.3826 28.3321 18.2396 29.9576 15.9211 32.848C13.6026 35.7384 12.2978 39.6578 12.293 43.7464V235.743H152.469V95.9201C152.452 77.9999 146.737 60.8197 136.578 48.1482C126.419 35.4767 112.644 28.3488 98.2769 28.3281Z" fill="white"/>
  <path d="M128.84 180.715H35.887C35.0835 180.715 34.3129 181.033 33.7448 181.599C33.1766 182.165 32.8574 182.933 32.8574 183.733C32.8574 184.534 33.1766 185.302 33.7448 185.868C34.3129 186.434 35.0835 186.752 35.887 186.752H128.84C129.644 186.752 130.414 186.434 130.983 185.868C131.551 185.302 131.87 184.534 131.87 183.733C131.87 182.933 131.551 182.165 130.983 181.599C130.414 181.033 129.644 180.715 128.84 180.715Z" fill="#DBF9DD"/>
  <path d="M128.84 168.777H35.8862C35.0819 168.777 34.3105 169.096 33.7418 169.662C33.173 170.229 32.8535 170.998 32.8535 171.799C32.8535 172.6 33.173 173.369 33.7418 173.936C34.3105 174.502 35.0819 174.821 35.8862 174.821H128.84C129.644 174.821 130.415 174.502 130.984 173.936C131.553 173.369 131.872 172.6 131.872 171.799C131.872 170.998 131.553 170.229 130.984 169.662C130.415 169.096 129.644 168.777 128.84 168.777Z" fill="#DBF9DD"/>
  <path d="M76.1808 156.844H35.887C35.0835 156.844 34.3129 157.162 33.7448 157.728C33.1766 158.294 32.8574 159.062 32.8574 159.862C32.8574 160.663 33.1766 161.431 33.7448 161.997C34.3129 162.563 35.0835 162.881 35.887 162.881H76.1808C76.9843 162.881 77.7549 162.563 78.3231 161.997C78.8912 161.431 79.2104 160.663 79.2104 159.862C79.2104 159.062 78.8912 158.294 78.3231 157.728C77.7549 157.162 76.9843 156.844 76.1808 156.844Z" fill="#DBF9DD"/>
  <path d="M128.84 131.844H35.8862C35.0819 131.844 34.3105 132.162 33.7418 132.729C33.173 133.295 32.8535 134.064 32.8535 134.865C32.8535 135.667 33.173 136.435 33.7418 137.002C34.3105 137.569 35.0819 137.887 35.8862 137.887H128.84C129.644 137.887 130.415 137.569 130.984 137.002C131.553 136.435 131.872 135.667 131.872 134.865C131.872 134.064 131.553 133.295 130.984 132.729C130.415 132.162 129.644 131.844 128.84 131.844Z" fill="#DBF9DD"/>
  <path d="M128.84 119.914H35.887C35.0835 119.914 34.3129 120.232 33.7448 120.798C33.1766 121.364 32.8574 122.132 32.8574 122.933C32.8574 123.733 33.1766 124.501 33.7448 125.067C34.3129 125.633 35.0835 125.951 35.887 125.951H128.84C129.644 125.951 130.414 125.633 130.983 125.067C131.551 124.501 131.87 123.733 131.87 122.933C131.87 122.132 131.551 121.364 130.983 120.798C130.414 120.232 129.644 119.914 128.84 119.914Z" fill="#DBF9DD"/>
  <path d="M76.18 107.973H35.8862C35.0819 107.973 34.3105 108.291 33.7418 108.858C33.173 109.424 32.8535 110.193 32.8535 110.994C32.8535 111.796 33.173 112.564 33.7418 113.131C34.3105 113.697 35.0819 114.016 35.8862 114.016H76.18C76.9843 114.016 77.7557 113.697 78.3244 113.131C78.8932 112.564 79.2127 111.796 79.2127 110.994C79.2127 110.193 78.8932 109.424 78.3244 108.858C77.7557 108.291 76.9843 107.973 76.18 107.973Z" fill="#DBF9DD"/>
  <path d="M128.84 82.9766H35.8862C35.0819 82.9766 34.3105 83.2949 33.7418 83.8616C33.173 84.4282 32.8535 85.1968 32.8535 85.9981C32.8535 86.7995 33.173 87.5681 33.7418 88.1347C34.3105 88.7014 35.0819 89.0197 35.8862 89.0197H128.84C129.644 89.0197 130.415 88.7014 130.984 88.1347C131.553 87.5681 131.872 86.7995 131.872 85.9981C131.872 85.1968 131.553 84.4282 130.984 83.8616C130.415 83.2949 129.644 82.9766 128.84 82.9766Z" fill="#24B563"/>
  <path d="M128.84 71.043H35.8862C35.0819 71.043 34.3105 71.3613 33.7418 71.928C33.173 72.4946 32.8535 73.2632 32.8535 74.0646C32.8535 74.8659 33.173 75.6345 33.7418 76.2011C34.3105 76.7678 35.0819 77.0861 35.8862 77.0861H128.84C129.644 77.0861 130.415 76.7678 130.984 76.2011C131.553 75.6345 131.872 74.8659 131.872 74.0646C131.872 73.2632 131.553 72.4946 130.984 71.928C130.415 71.3613 129.644 71.043 128.84 71.043Z" fill="#24B563"/>
  <path d="M76.18 59.1055H35.8862C35.0819 59.1055 34.3105 59.4238 33.7418 59.9905C33.173 60.5571 32.8535 61.3257 32.8535 62.1271C32.8535 62.9284 33.173 63.697 33.7418 64.2636C34.3105 64.8303 35.0819 65.1486 35.8862 65.1486H76.18C76.9843 65.1486 77.7557 64.8303 78.3244 64.2636C78.8932 63.697 79.2127 62.9284 79.2127 62.1271C79.2127 61.3257 78.8932 60.5571 78.3244 59.9905C77.7557 59.4238 76.9843 59.1055 76.18 59.1055Z" fill="#24B563"/>
  <path d="M155.596 47.0182C168.627 47.0182 179.191 36.4928 179.191 23.5091C179.191 10.5254 168.627 0 155.596 0C142.564 0 132 10.5254 132 23.5091C132 36.4928 142.564 47.0182 155.596 47.0182Z" fill="#24B563"/>
  <path d="M158.718 11.2655C158.663 11.0626 158.372 11.0626 158.317 11.2655L157.814 13.1141C157.795 13.1848 157.739 13.2401 157.668 13.2592L155.8 13.7569C155.595 13.8115 155.595 14.0994 155.8 14.1541L157.668 14.6518C157.739 14.6709 157.795 14.7261 157.814 14.7969L158.317 16.6455C158.372 16.8484 158.663 16.8484 158.718 16.6455L159.221 14.7969C159.24 14.7261 159.296 14.6709 159.368 14.6518L161.235 14.1541C161.44 14.0994 161.44 13.8115 161.235 13.7569L159.368 13.2592C159.296 13.2401 159.24 13.1848 159.221 13.1141L158.718 11.2655Z" fill="white"/>
  <path d="M150.037 13.7215C150.159 13.2751 150.798 13.2751 150.92 13.7215L152.026 17.7884C152.068 17.9441 152.191 18.0657 152.348 18.1077L156.457 19.2027C156.908 19.3229 156.908 19.9562 156.457 20.0764L152.348 21.1714C152.191 21.2134 152.068 21.335 152.026 21.4907L150.92 25.5576C150.798 26.004 150.159 26.004 150.037 25.5576L148.931 21.4907C148.889 21.335 148.766 21.2134 148.609 21.1714L144.5 20.0764C144.049 19.9562 144.049 19.3229 144.5 19.2027L148.609 18.1077C148.766 18.0657 148.889 17.9441 148.931 17.7884L150.037 13.7215Z" fill="white"/>
  <path d="M160.667 20.7258C160.866 20.0359 161.913 20.0359 162.112 20.7258L163.922 27.011C163.991 27.2516 164.192 27.4396 164.449 27.5044L171.172 29.1967C171.91 29.3824 171.91 30.3613 171.172 30.547L164.449 32.2393C164.192 32.3041 163.991 32.4921 163.922 32.7327L162.112 39.0179C161.913 39.7078 160.866 39.7078 160.667 39.0179L158.857 32.7327C158.788 32.4921 158.587 32.3041 158.33 32.2393L151.607 30.547C150.869 30.3613 150.869 29.3824 151.607 29.1967L158.33 27.5044C158.587 27.4396 158.788 27.2516 158.857 27.011L160.667 20.7258Z" fill="white"/>
</svg>
