<svg width="821" height="426" viewBox="0 0 821 426" fill="none" xmlns="http://www.w3.org/2000/svg">
  <g clip-path="url(#clip0_3204_51573)">
    <path d="M185.064 106.716H99.0391V107.943H185.064V106.716Z" fill="#F2F2F2"/>
    <path d="M123.62 95.6709H122.391V107.023H123.62V95.6709Z" fill="#F2F2F2"/>
    <path d="M161.104 95.6709H159.875V107.023H161.104V95.6709Z" fill="#F2F2F2"/>
    <path d="M155.572 45.3525H69.5469V46.5798H155.572V45.3525Z" fill="#F2F2F2"/>
    <path d="M132.221 46.2734H130.992V57.6257H132.221V46.2734Z" fill="#F2F2F2"/>
    <path d="M94.7406 46.2734H93.5117V57.6257H94.7406V46.2734Z" fill="#F2F2F2"/>
    <path d="M291.982 131.262H205.957V132.489H291.982V131.262Z" fill="#F2F2F2"/>
    <path d="M230.538 120.216H229.309V131.568H230.538V120.216Z" fill="#F2F2F2"/>
    <path d="M268.018 120.216H266.789V131.568H268.018V120.216Z" fill="#F2F2F2"/>
    <path d="M262.49 69.8984H176.465V71.1257H262.49V69.8984Z" fill="#F2F2F2"/>
    <path d="M239.139 70.8184H237.91V82.1706H239.139V70.8184Z" fill="#F2F2F2"/>
    <path d="M201.659 70.8184H200.43V82.1706H201.659V70.8184Z" fill="#F2F2F2"/>
    <path d="M258.189 339.898H172.164V341.126H258.189V339.898Z" fill="#F2F2F2"/>
    <path d="M196.741 328.853H195.512V340.205H196.741V328.853Z" fill="#F2F2F2"/>
    <path d="M234.225 328.853H232.996V340.205H234.225V328.853Z" fill="#F2F2F2"/>
    <path d="M228.693 278.534H142.668V279.761H228.693V278.534Z" fill="#F2F2F2"/>
    <path d="M205.342 279.455H204.113V290.807H205.342V279.455Z" fill="#F2F2F2"/>
    <path d="M167.862 279.455H166.633V290.807H167.862V279.455Z" fill="#F2F2F2"/>
    <path d="M218.861 207.353H132.836V208.58H218.861V207.353Z" fill="#F2F2F2"/>
    <path d="M157.416 196.307H156.188V207.659H157.416V196.307Z" fill="#F2F2F2"/>
    <path d="M194.897 196.307H193.668V207.659H194.897V196.307Z" fill="#F2F2F2"/>
    <path d="M189.369 145.988H103.344V147.216H189.369V145.988Z" fill="#F2F2F2"/>
    <path d="M166.018 146.909H164.789V158.261H166.018V146.909Z" fill="#F2F2F2"/>
    <path d="M128.534 146.909H127.305V158.261H128.534V146.909Z" fill="#F2F2F2"/>
    <path d="M156.802 300.625H70.7773V301.852H156.802V300.625Z" fill="#F2F2F2"/>
    <path d="M95.3539 289.58H94.125V300.932H95.3539V289.58Z" fill="#F2F2F2"/>
    <path d="M132.838 289.58H131.609V300.932H132.838V289.58Z" fill="#F2F2F2"/>
    <path d="M127.306 239.262H41.2812V240.489H127.306V239.262Z" fill="#F2F2F2"/>
    <path d="M103.955 240.182H102.727V251.534H103.955V240.182Z" fill="#F2F2F2"/>
    <path d="M66.475 240.182H65.2461V251.534H66.475V240.182Z" fill="#F2F2F2"/>
    <path d="M585.084 106.716H499.059V107.943H585.084V106.716Z" fill="#F2F2F2"/>
    <path d="M523.635 95.6709H522.406V107.023H523.635V95.6709Z" fill="#F2F2F2"/>
    <path d="M561.12 95.6709H559.891V107.023H561.12V95.6709Z" fill="#F2F2F2"/>
    <path d="M555.588 45.3525H469.562V46.5798H555.588V45.3525Z" fill="#F2F2F2"/>
    <path d="M532.241 46.2734H531.012V57.6257H532.241V46.2734Z" fill="#F2F2F2"/>
    <path d="M494.756 46.2734H493.527V57.6257H494.756V46.2734Z" fill="#F2F2F2"/>
    <path d="M692.002 131.262H605.977V132.489H692.002V131.262Z" fill="#F2F2F2"/>
    <path d="M630.553 120.216H629.324V131.568H630.553V120.216Z" fill="#F2F2F2"/>
    <path d="M668.038 120.216H666.809V131.568H668.038V120.216Z" fill="#F2F2F2"/>
    <path d="M662.506 69.8984H576.48V71.1257H662.506V69.8984Z" fill="#F2F2F2"/>
    <path d="M639.155 70.8184H637.926V82.1706H639.155V70.8184Z" fill="#F2F2F2"/>
    <path d="M601.674 70.8184H600.445V82.1706H601.674V70.8184Z" fill="#F2F2F2"/>
    <path d="M658.205 339.898H572.18V341.126H658.205V339.898Z" fill="#F2F2F2"/>
    <path d="M596.756 328.853H595.527V340.205H596.756V328.853Z" fill="#F2F2F2"/>
    <path d="M634.241 328.853H633.012V340.205H634.241V328.853Z" fill="#F2F2F2"/>
    <path d="M628.709 278.534H542.684V279.761H628.709V278.534Z" fill="#F2F2F2"/>
    <path d="M605.362 279.455H604.133V290.807H605.362V279.455Z" fill="#F2F2F2"/>
    <path d="M567.877 279.455H566.648V290.807H567.877V279.455Z" fill="#F2F2F2"/>
    <path d="M618.877 207.353H532.852V208.58H618.877V207.353Z" fill="#F2F2F2"/>
    <path d="M557.432 196.307H556.203V207.659H557.432V196.307Z" fill="#F2F2F2"/>
    <path d="M594.916 196.307H593.688V207.659H594.916V196.307Z" fill="#F2F2F2"/>
    <path d="M589.385 145.989H503.359V147.217H589.385V145.989Z" fill="#F2F2F2"/>
    <path d="M566.034 146.909H564.805V158.261H566.034V146.909Z" fill="#F2F2F2"/>
    <path d="M528.553 146.909H527.324V158.261H528.553V146.909Z" fill="#F2F2F2"/>
    <path d="M556.818 300.625H470.793V301.852H556.818V300.625Z" fill="#F2F2F2"/>
    <path d="M495.37 289.58H494.141V300.932H495.37V289.58Z" fill="#F2F2F2"/>
    <path d="M532.854 289.58H531.625V300.932H532.854V289.58Z" fill="#F2F2F2"/>
    <path d="M527.322 239.262H441.297V240.489H527.322V239.262Z" fill="#F2F2F2"/>
    <path d="M503.975 240.182H502.746V251.534H503.975V240.182Z" fill="#F2F2F2"/>
    <path d="M466.491 240.182H465.262V251.534H466.491V240.182Z" fill="#F2F2F2"/>
    <path d="M495.834 203.113H376.32V372.477H495.834V203.113Z" fill="#3D564F"/>
    <path d="M805 203.113H685V372.477H805V203.113Z" fill="#3D564F"/>
    <path d="M650.513 203.113H531V372.477H650.513V203.113Z" fill="#3D564F"/>
    <path d="M342.525 203.113H223.012V372.477H342.525V203.113Z" fill="#3D564F"/>
    <path d="M342.525 0H223.012V169H342.525V0Z" fill="#3D564F"/>
    <path d="M495.834 0H376.32V169H495.834V0Z" fill="#3D564F"/>
    <path d="M805 0H685V169H805V0Z" fill="#3D564F"/>
    <path d="M650.513 0H531V169H650.513V0Z" fill="#3D564F"/>
    <mask id="mask0_3204_51573" style="mask-type:alpha" maskUnits="userSpaceOnUse" x="223" y="0" width="582" height="373">
      <path fill-rule="evenodd" clip-rule="evenodd" d="M223.012 0H342.525V169.364H223.012V0ZM376 203H496V372H376V203ZM651 203H531V372H651V203ZM223.012 203.114H342.525V372.477H223.012V203.114ZM496 0H376V169H496V0ZM531 0H651V169H531V0ZM805 203H685V372H805V203ZM685 0H805V169H685V0Z" fill="#3D564F"/>
    </mask>
    <g mask="url(#mask0_3204_51573)">
      <path d="M253.406 246.386V219.753L347.689 70.8182H368.676V110.023H355.359L287.923 216.77V218.474H417.149V246.386H253.406ZM356.851 289V238.29L357.064 226.145V70.8182H388.278V289H356.851ZM527.235 292.622C510.403 292.551 496.021 288.112 484.089 279.305C472.157 270.499 463.031 257.679 456.71 240.847C450.388 224.014 447.228 203.737 447.228 180.016C447.228 156.365 450.388 136.159 456.71 119.398C463.102 102.636 472.263 89.8523 484.195 81.0455C496.198 72.2386 510.545 67.8352 527.235 67.8352C543.925 67.8352 558.237 72.2741 570.168 81.152C582.1 89.9588 591.227 102.743 597.548 119.504C603.94 136.195 607.136 156.365 607.136 180.016C607.136 203.808 603.975 224.121 597.654 240.953C591.333 257.714 582.207 270.534 570.275 279.412C558.343 288.219 543.996 292.622 527.235 292.622ZM527.235 264.178C542.008 264.178 553.549 256.969 561.859 242.551C570.239 228.134 574.43 207.288 574.43 180.016C574.43 161.905 572.512 146.599 568.677 134.099C564.913 121.528 559.479 112.011 552.377 105.548C545.346 99.0142 536.965 95.7471 527.235 95.7471C512.533 95.7471 500.992 102.991 492.612 117.48C484.231 131.969 480.005 152.814 479.934 180.016C479.934 198.197 481.816 213.574 485.58 226.145C489.415 238.645 494.849 248.126 501.88 254.589C508.911 260.982 517.363 264.178 527.235 264.178ZM637.348 246.386V219.753L731.63 70.8182H752.618V110.023H739.301L671.865 216.77V218.474H801.091V246.386H637.348ZM740.792 289V238.29L741.005 226.145V70.8182H772.22V289H740.792Z" fill="#7AA48C"/>
    </g>
    <path d="M805 372H64V374H805V372Z" fill="#3C3C3C"/>
    <path d="M70.0091 362.659H63.25V419.727C63.25 419.727 106.877 433.841 149.275 419.727V362.659H70.0091Z" fill="#3D564E"/>
    <path d="M105.648 369.409C129.064 369.409 148.046 366.524 148.046 362.966C148.046 359.407 129.064 356.522 105.648 356.522C82.2323 356.522 63.25 359.407 63.25 362.966C63.25 366.524 82.2323 369.409 105.648 369.409Z" fill="#3F3D56"/>
    <path d="M105.648 369.409C129.064 369.409 148.046 366.524 148.046 362.966C148.046 359.407 129.064 356.522 105.648 356.522C82.2323 356.522 63.25 359.407 63.25 362.966C63.25 366.524 82.2323 369.409 105.648 369.409Z" fill="#3C3C3C"/>
    <path d="M154.932 294.476C144.237 333.96 107.602 358.414 107.602 358.414C107.602 358.414 88.3077 318.851 99.0034 279.366C109.699 239.882 146.334 215.429 146.334 215.429C146.334 215.429 165.628 254.992 154.932 294.476Z" fill="#3D564E"/>
    <path d="M57.6323 294.476C68.3279 333.96 104.963 358.414 104.963 358.414C104.963 358.414 124.257 318.851 113.561 279.366C102.866 239.882 66.2306 215.429 66.2306 215.429C66.2306 215.429 46.9366 254.992 57.6323 294.476Z" fill="#24B563"/>
    <path d="M73.3484 285.99C102.697 314.522 106.282 358.381 106.282 358.381C106.282 358.381 62.2828 355.982 32.9338 327.451C3.58479 298.919 0 255.06 0 255.06C0 255.06 43.9994 257.459 73.3484 285.99Z" fill="#3D564E"/>
    <path d="M139.215 285.99C109.866 314.522 106.281 358.381 106.281 358.381C106.281 358.381 150.281 355.982 179.63 327.451C208.979 298.919 212.563 255.06 212.563 255.06C212.563 255.06 168.564 257.459 139.215 285.99Z" fill="#3D564E"/>
    <path d="M106.26 228.887C113.726 228.887 119.779 222.843 119.779 215.387C119.779 207.931 113.726 201.887 106.26 201.887C98.7945 201.887 92.7422 207.931 92.7422 215.387C92.7422 222.843 98.7945 228.887 106.26 228.887Z" fill="#24B563"/>
    <path d="M270.324 92.6594C271.342 92.6594 272.167 91.8352 272.167 90.8184C272.167 89.8017 271.342 88.9775 270.324 88.9775C269.306 88.9775 268.48 89.8017 268.48 90.8184C268.48 91.8352 269.306 92.6594 270.324 92.6594Z" fill="white"/>
    <path d="M261.721 68.727C273.599 68.727 283.227 59.1113 283.227 47.2497C283.227 35.3882 273.599 25.7725 261.721 25.7725C249.844 25.7725 240.215 35.3882 240.215 47.2497C240.215 59.1113 249.844 68.727 261.721 68.727Z" fill="white"/>
    <path d="M296.13 77.3181C296.469 77.3181 296.745 77.0434 296.745 76.7045C296.745 76.3656 296.469 76.0908 296.13 76.0908C295.791 76.0908 295.516 76.3656 295.516 76.7045C295.516 77.0434 295.791 77.3181 296.13 77.3181Z" fill="white"/>
    <path d="M404.279 108C404.618 108 404.893 107.725 404.893 107.386C404.893 107.047 404.618 106.772 404.279 106.772C403.939 106.772 403.664 107.047 403.664 107.386C403.664 107.725 403.939 108 404.279 108Z" fill="white"/>
    <path d="M397.517 291.477C397.856 291.477 398.131 291.203 398.131 290.864C398.131 290.525 397.856 290.25 397.517 290.25C397.177 290.25 396.902 290.525 396.902 290.864C396.902 291.203 397.177 291.477 397.517 291.477Z" fill="white"/>
    <path d="M267.864 333.818C268.204 333.818 268.479 333.543 268.479 333.204C268.479 332.866 268.204 332.591 267.864 332.591C267.525 332.591 267.25 332.866 267.25 333.204C267.25 333.543 267.525 333.818 267.864 333.818Z" fill="white"/>
    <path d="M449.134 129.477C449.473 129.477 449.748 129.203 449.748 128.864C449.748 128.525 449.473 128.25 449.134 128.25C448.795 128.25 448.52 128.525 448.52 128.864C448.52 129.203 448.795 129.477 449.134 129.477Z" fill="white"/>
    <path d="M442.989 77.9324C443.329 77.9324 443.604 77.6576 443.604 77.3187C443.604 76.9798 443.329 76.7051 442.989 76.7051C442.65 76.7051 442.375 76.9798 442.375 77.3187C442.375 77.6576 442.65 77.9324 442.989 77.9324Z" fill="white"/>
    <path d="M422.099 243.614C422.438 243.614 422.713 243.339 422.713 243C422.713 242.661 422.438 242.387 422.099 242.387C421.759 242.387 421.484 242.661 421.484 243C421.484 243.339 421.759 243.614 422.099 243.614Z" fill="white"/>
    <path d="M388.915 151.568C389.255 151.568 389.53 151.293 389.53 150.954C389.53 150.616 389.255 150.341 388.915 150.341C388.576 150.341 388.301 150.616 388.301 150.954C388.301 151.293 388.576 151.568 388.915 151.568Z" fill="white"/>
    <path d="M393.833 65.0456C394.173 65.0456 394.448 64.7709 394.448 64.432C394.448 64.0931 394.173 63.8184 393.833 63.8184C393.494 63.8184 393.219 64.0931 393.219 64.432C393.219 64.7709 393.494 65.0456 393.833 65.0456Z" fill="white"/>
    <path d="M449.747 30.0681C450.087 30.0681 450.362 29.7934 450.362 29.4545C450.362 29.1156 450.087 28.8408 449.747 28.8408C449.408 28.8408 449.133 29.1156 449.133 29.4545C449.133 29.7934 449.408 30.0681 449.747 30.0681Z" fill="white"/>
    <path d="M269.095 278.591C269.434 278.591 269.709 278.316 269.709 277.977C269.709 277.638 269.434 277.363 269.095 277.363C268.756 277.363 268.48 277.638 268.48 277.977C268.48 278.316 268.756 278.591 269.095 278.591Z" fill="white"/>
    <path d="M321.939 325.227C322.278 325.227 322.553 324.953 322.553 324.614C322.553 324.275 322.278 324 321.939 324C321.599 324 321.324 324.275 321.324 324.614C321.324 324.953 321.599 325.227 321.939 325.227Z" fill="white"/>
    <path d="M254.349 232.568C254.688 232.568 254.963 232.293 254.963 231.954C254.963 231.616 254.688 231.341 254.349 231.341C254.009 231.341 253.734 231.616 253.734 231.954C253.734 232.293 254.009 232.568 254.349 232.568Z" fill="white"/>
    <path d="M269.708 151.568C270.048 151.568 270.323 151.293 270.323 150.954C270.323 150.616 270.048 150.341 269.708 150.341C269.369 150.341 269.094 150.616 269.094 150.954C269.094 151.293 269.369 151.568 269.708 151.568Z" fill="white"/>
    <path opacity="0.1" d="M269.711 151.568L342.525 120.229V128.526L269.711 151.568Z" fill="white"/>
    <path opacity="0.1" d="M495.834 54.252V80.0063L376.32 117.831V105.687L495.834 54.252Z" fill="white"/>
    <path opacity="0.1" d="M305.375 242.374L342.526 221.934V224.775C321.75 234.82 306.1 242.042 305.375 242.374Z" fill="white"/>
    <path opacity="0.1" d="M376.738 203.113H386.109C382.858 204.789 379.595 206.451 376.32 208.102V203.346L376.738 203.113Z" fill="white"/>
    <path opacity="0.1" d="M450.361 162.613C450.078 164.239 447.934 166.547 444.364 169.363H438.09L450.361 162.613Z" fill="white"/>
    <path opacity="0.1" d="M495.833 272.676V277.008C463.93 292.907 434.786 306.352 433.797 306.806L495.833 272.676Z" fill="white"/>
    <path d="M423.941 278.707C423.941 277.489 423.591 276.298 422.934 275.273C422.277 274.248 421.339 273.432 420.232 272.922L420.429 270.416H406.699L408.296 286.678H419.152L419.296 284.838C420.633 284.46 421.81 283.656 422.648 282.55C423.487 281.443 423.941 280.094 423.941 278.707ZM419.373 283.867L420.133 274.185C420.792 274.835 421.301 275.62 421.625 276.487C421.948 277.354 422.078 278.281 422.006 279.203C421.934 280.125 421.66 281.02 421.206 281.826C420.751 282.631 420.125 283.328 419.373 283.867Z" fill="#24B563"/>
    <path d="M409.138 265.47C409.138 265.47 425.372 277.05 419.961 281.682C414.549 286.314 403.727 267.786 403.727 267.786L409.138 265.47Z" fill="#FFB9B9"/>
    <path d="M334.152 283.227C334.152 283.227 337.245 321.827 338.018 327.231C338.791 332.635 339.564 381.272 341.11 386.677C342.656 392.081 344.202 405.205 344.202 405.205H353.479C353.479 405.205 352.706 381.272 355.025 372.008C357.344 362.744 356.571 337.268 356.571 337.268C356.571 337.268 361.209 291.719 358.89 285.543C356.571 279.366 334.152 283.227 334.152 283.227Z" fill="#FFB9B9"/>
    <path d="M346.521 402.889C346.521 402.889 342.656 405.205 342.656 406.749C342.656 408.293 343.429 412.153 342.656 413.697C341.882 415.241 336.471 421.417 339.563 422.961C342.656 424.505 356.571 422.961 356.571 422.961C356.571 422.961 355.798 412.153 355.024 411.381C354.251 410.609 355.797 402.889 355.797 402.889H346.521Z" fill="#3C3C3C"/>
    <path d="M393.249 282.279C393.249 282.279 394.231 320.991 394.03 326.446C393.83 331.902 398.173 380.351 397.203 385.887C396.234 391.424 396.076 404.637 396.076 404.637L386.85 405.61C386.85 405.61 385.104 381.729 381.823 372.759C378.543 363.789 376.634 338.372 376.634 338.372C376.634 338.372 367.234 293.561 368.891 287.176C370.548 280.791 393.249 282.279 393.249 282.279Z" fill="#FFB9B9"/>
    <path d="M393.522 402.578C393.522 402.578 397.61 404.476 397.772 406.012C397.934 407.547 397.571 411.467 398.502 412.921C399.433 414.376 405.464 419.951 402.551 421.81C399.638 423.67 385.638 423.593 385.638 423.593C385.638 423.593 385.271 412.764 385.958 411.915C386.646 411.066 384.297 403.551 384.297 403.551L393.522 402.578Z" fill="#3C3C3C"/>
    <path d="M344.974 225.325C344.974 225.325 338.789 226.097 336.47 239.221C329.5 253.501 335.042 405.185 341.999 407.501C348.957 409.817 355.227 407.545 356 406.001C356.773 404.457 363.527 287.858 363.527 287.858C363.527 287.858 379.028 407.501 382.12 407.501C385.212 407.501 401.273 408.317 400.5 406.001C399.727 403.685 394.449 268.558 394.449 268.558C394.449 268.558 389.811 239.993 385.173 235.361C383.83 234.074 382.788 232.508 382.12 230.773C381.452 229.039 381.175 227.179 381.307 225.325H344.974Z" fill="#3C3C3C"/>
    <path d="M333.379 219.149C333.379 219.149 343.428 216.833 344.974 219.921C346.521 223.009 341.109 227.641 338.79 227.641C336.471 227.641 332.605 225.325 332.605 225.325L333.379 219.149Z" fill="#FFB9B9"/>
    <path d="M368.958 152.515C376.643 152.515 382.873 146.294 382.873 138.619C382.873 130.944 376.643 124.723 368.958 124.723C361.273 124.723 355.043 130.944 355.043 138.619C355.043 146.294 361.273 152.515 368.958 152.515Z" fill="#FFB9B9"/>
    <path d="M360.549 148.14C360.549 148.14 358.887 160.476 357.341 160.476C355.795 160.476 368.937 167.424 368.937 167.424L378.987 165.88L382.079 161.248C382.079 161.248 377.284 153.809 377.284 147.633C377.284 141.457 360.549 148.14 360.549 148.14Z" fill="#FFB9B9"/>
    <path d="M363.526 160.476C363.526 160.476 361.207 158.932 360.434 158.932H354.249C353.476 158.932 343.427 161.248 343.427 161.248L337.242 195.988C337.242 195.988 348.065 213.745 340.334 227.641C340.334 227.641 342.654 226.097 353.476 226.869C364.299 227.641 383.626 229.957 384.399 229.957C385.172 229.957 385.172 223.781 384.399 222.237C383.626 220.693 385.172 221.465 385.172 217.605C385.172 213.745 387.491 206.797 387.491 206.797L398.314 167.424C398.314 167.424 384.399 159.704 382.08 160.476C379.76 161.248 372.803 163.564 371.257 162.792C369.711 162.02 363.526 160.476 363.526 160.476Z" fill="#24B563"/>
    <path d="M345.749 162.019L343.43 161.247C343.43 161.247 338.791 160.475 333.38 165.108C327.968 169.74 307.869 183.636 307.869 183.636C307.869 183.636 300.138 189.812 302.457 196.76C304.777 203.708 308.642 220.693 320.238 219.921C320.238 219.921 327.195 229.185 331.061 227.641C334.926 226.097 338.018 219.921 335.699 219.149C333.38 218.377 327.195 210.656 327.195 210.656L334.926 195.988H337.245L345.749 191.356L345.749 162.019Z" fill="#24B563"/>
    <path d="M392.129 166.652L398.314 167.424C398.314 167.424 403.725 169.74 402.952 179.777C402.179 189.813 407.591 235.362 405.271 240.766C405.271 240.766 413.002 267.014 411.456 267.786C409.91 268.558 400.633 273.19 401.406 270.102C402.179 267.014 392.903 245.398 392.903 245.398C392.903 245.398 382.08 233.818 386.718 217.605V204.481L392.129 166.652Z" fill="#24B563"/>
    <path d="M405.036 151.096C403.312 148.66 401.19 146.532 399.37 144.166C395.174 138.712 393.722 131.445 388.091 127.263C382.519 123.125 373.676 119.051 366.703 119.378C357.514 119.808 350.224 126.927 343.889 133.589C339.048 138.68 334.207 143.771 329.366 148.862C325.863 152.545 322.232 156.455 320.97 161.375C319.757 166.104 320.94 171.184 323.162 175.533C325.469 179.944 328.707 183.803 332.651 186.845C337.512 180.16 344.323 170.929 344.323 170.929L345.909 193.89C354.145 196.616 362.993 197.152 371.672 196.549L374.243 187.135L376.942 196.028C387.314 194.654 397.734 191.078 404.155 182.995C411.254 174.058 411.631 160.41 405.036 151.096Z" fill="#3C3C3C"/>
    <path d="M347.117 148.777C345.682 141.584 347.232 134.132 352.05 128.425C360.952 117.881 377.617 117.288 389.272 127.102C393.923 130.974 397.26 136.188 398.826 142.029C397.488 135.564 393.99 129.743 388.907 125.522C377.252 115.708 360.587 116.301 351.685 126.845C346.513 132.971 345.107 141.109 347.117 148.777Z" fill="#3C3C3C"/>
    <path d="M319.73 182.708C318.295 175.515 319.845 168.062 324.664 162.355C333.565 151.811 350.23 151.219 361.885 161.032C366.536 164.905 369.873 170.119 371.439 175.96C370.101 169.494 366.604 163.674 361.52 159.452C349.865 149.639 333.2 150.231 324.298 160.775C319.126 166.902 317.72 175.039 319.73 182.708Z" fill="#3C3C3C"/>
    <path d="M381.836 144.92C389.145 144.202 396.419 146.475 401.633 151.825C411.264 161.708 410.216 178.328 399.291 188.946C394.975 193.187 389.451 195.991 383.477 196.974C390.051 196.279 396.195 193.376 400.902 188.739C411.827 178.12 412.875 161.5 403.243 151.617C397.646 145.874 389.676 143.677 381.836 144.92Z" fill="#3C3C3C"/>
    <path opacity="0.1" d="M416.407 243.249C415.696 243.084 414.952 243.138 414.273 243.405C413.593 243.671 413.011 244.137 412.603 244.741C412.315 245.208 412.107 245.72 411.989 246.255C411.651 247.72 411.719 249.249 412.184 250.678C412.649 252.108 413.494 253.385 414.63 254.372C415.225 254.809 415.79 255.288 416.319 255.803C416.809 256.396 417.15 257.098 417.312 257.85C417.474 258.601 417.452 259.381 417.249 260.122C416.824 261.608 415.936 262.92 414.714 263.867C414.459 264.04 414.246 264.268 414.09 264.534C413.675 265.422 414.747 266.267 415.019 267.209" fill="white"/>
  </g>
  <defs>
    <clipPath id="clip0_3204_51573">
      <rect width="821" height="426" fill="white"/>
    </clipPath>
  </defs>
</svg>
