<svg width="64" height="64" viewBox="0 0 64 64" fill="none" xmlns="http://www.w3.org/2000/svg">
<path d="M64 32C64 49.6731 49.6731 64 32 64C14.3269 64 0 49.6731 0 32C0 14.3269 14.3269 0 32 0C49.6731 0 64 14.3269 64 32Z" fill="#1873EB"/>
<path d="M26.7718 63.575V40.6464H19.2V31.5437H26.7718V24.8278C26.7718 17.0355 31.3465 12.8 38.0394 12.8C41.2394 12.8 43.9887 13.034 44.8 13.151V21.3177H40.1578C36.507 21.3177 35.8085 23.0962 35.8085 25.7404V31.5437H44.4845L43.3577 40.6464H35.8085V63.7757C34.5596 63.9238 33.2887 64 32 64C30.2196 64 28.4731 63.8546 26.7718 63.575Z" fill="white"/>
</svg>
