<svg width="64" height="64" viewBox="0 0 64 64" fill="none" xmlns="http://www.w3.org/2000/svg">
<path d="M64 32C64 49.6731 49.6731 64 32 64C14.3269 64 0 49.6731 0 32C0 14.3269 14.3269 0 32 0C49.6731 0 64 14.3269 64 32Z" fill="url(#paint0_radial_6901_66101)"/>
<path d="M64 32C64 49.6731 49.6731 64 32 64C14.3269 64 0 49.6731 0 32C0 14.3269 14.3269 0 32 0C49.6731 0 64 14.3269 64 32Z" fill="url(#paint1_radial_6901_66101)"/>
<path d="M32.0018 12.8C26.7873 12.8 26.1329 12.8228 24.0849 12.916C22.0409 13.0096 20.6457 13.3332 19.4249 13.808C18.1621 14.2984 17.0908 14.9544 16.0236 16.022C14.9556 17.0892 14.2996 18.1604 13.8076 19.4228C13.3316 20.644 13.0076 22.0396 12.9156 24.0828C12.824 26.1308 12.8 26.7856 12.8 32C12.8 37.2144 12.8232 37.8668 12.916 39.9148C13.01 41.9588 13.3336 43.354 13.808 44.5748C14.2988 45.8376 14.9548 46.9088 16.0224 47.976C17.0892 49.044 18.1605 49.7016 19.4225 50.192C20.6441 50.6668 22.0397 50.9904 24.0833 51.084C26.1313 51.1772 26.7853 51.2 31.9994 51.2C37.2143 51.2 37.8667 51.1772 39.9147 51.084C41.9587 50.9904 43.3555 50.6668 44.5771 50.192C45.8395 49.7016 46.9092 49.044 47.976 47.976C49.044 46.9088 49.7 45.8376 50.192 44.5752C50.664 43.354 50.988 41.9584 51.084 39.9152C51.176 37.8672 51.2 37.2144 51.2 32C51.2 26.7856 51.176 26.1312 51.084 24.0832C50.988 22.0392 50.664 20.644 50.192 19.4232C49.7 18.1604 49.044 17.0892 47.976 16.022C46.908 14.954 45.8399 14.298 44.5759 13.808C43.3519 13.3332 41.9559 13.0096 39.9119 12.916C37.8639 12.8228 37.2119 12.8 31.9958 12.8H32.0018ZM30.2794 16.26C30.7906 16.2592 31.361 16.26 32.0018 16.26C37.1283 16.26 37.7359 16.2784 39.7603 16.3704C41.6323 16.456 42.6483 16.7688 43.3251 17.0316C44.2211 17.3796 44.8599 17.7956 45.5315 18.4676C46.2035 19.1396 46.6195 19.7796 46.9684 20.6756C47.2312 21.3516 47.5444 22.3676 47.6296 24.2396C47.7216 26.2636 47.7416 26.8716 47.7416 31.9956C47.7416 37.1196 47.7216 37.7276 47.6296 39.7516C47.544 41.6236 47.2312 42.6396 46.9684 43.3156C46.6203 44.2116 46.2035 44.8496 45.5315 45.5212C44.8595 46.1932 44.2215 46.6092 43.3251 46.9572C42.6491 47.2212 41.6323 47.5332 39.7603 47.6188C37.7363 47.7108 37.1283 47.7308 32.0018 47.7308C26.8749 47.7308 26.2673 47.7108 24.2433 47.6188C22.3713 47.5324 21.3553 47.2196 20.6781 46.9568C19.7821 46.6088 19.1421 46.1928 18.4701 45.5208C17.7981 44.8488 17.382 44.2104 17.0332 43.314C16.7704 42.638 16.4572 41.622 16.372 39.75C16.28 37.726 16.2616 37.118 16.2616 31.9908C16.2616 26.8636 16.28 26.2588 16.372 24.2348C16.4576 22.3628 16.7704 21.3468 17.0332 20.67C17.3812 19.774 17.7981 19.134 18.4701 18.462C19.1421 17.79 19.7821 17.374 20.6781 17.0252C21.3549 16.7612 22.3713 16.4492 24.2433 16.3632C26.0145 16.2832 26.7009 16.2592 30.2794 16.2552V16.26ZM42.2507 19.448C40.9787 19.448 39.9467 20.4788 39.9467 21.7512C39.9467 23.0232 40.9787 24.0552 42.2507 24.0552C43.5227 24.0552 44.5547 23.0232 44.5547 21.7512C44.5547 20.4792 43.5227 19.448 42.2507 19.448ZM32.0018 22.14C26.5565 22.14 22.1417 26.5548 22.1417 32C22.1417 37.4452 26.5565 41.858 32.0018 41.858C37.4471 41.858 41.8603 37.4452 41.8603 32C41.8603 26.5548 37.4471 22.14 32.0018 22.14ZM32.0018 25.6C35.5362 25.6 38.4019 28.4652 38.4019 32C38.4019 35.5344 35.5362 38.4 32.0018 38.4C28.467 38.4 25.6017 35.5344 25.6017 32C25.6017 28.4652 28.467 25.6 32.0018 25.6Z" fill="white"/>
<defs>
<radialGradient id="paint0_radial_6901_66101" cx="0" cy="0" r="1" gradientUnits="userSpaceOnUse" gradientTransform="translate(17.0001 68.9293) rotate(-90) scale(63.4287 58.9937)">
<stop stop-color="#FFDD55"/>
<stop offset="0.1" stop-color="#FFDD55"/>
<stop offset="0.5" stop-color="#FF543E"/>
<stop offset="1" stop-color="#C837AB"/>
</radialGradient>
<radialGradient id="paint1_radial_6901_66101" cx="0" cy="0" r="1" gradientUnits="userSpaceOnUse" gradientTransform="translate(-10.7203 4.61045) rotate(78.6806) scale(28.3529 116.872)">
<stop stop-color="#3771C8"/>
<stop offset="0.128" stop-color="#3771C8"/>
<stop offset="1" stop-color="#6600FF" stop-opacity="0"/>
</radialGradient>
</defs>
</svg>
