<svg width="48" height="48" viewBox="0 0 48 48" fill="none" xmlns="http://www.w3.org/2000/svg">
<circle cx="24" cy="24" r="24" fill="#0B65C3"/>
<path d="M12.3521 20.2097V36H17.6338V20.2097H12.3521Z" fill="white"/>
<path d="M13.3059 16.5799C13.8009 16.9275 14.3876 17.1222 14.993 17.1394C15.8211 17.1488 16.6193 16.8311 17.2131 16.2558C17.8069 15.6805 18.1481 14.8943 18.162 14.0691C18.1617 13.4656 17.983 12.8756 17.6482 12.3728C17.3134 11.8699 16.8373 11.4766 16.2795 11.2418C15.7216 11.0071 15.1067 10.9414 14.5116 11.0529C13.9164 11.1644 13.3675 11.4483 12.9333 11.8689C12.4991 12.2896 12.199 12.8284 12.0703 13.4181C11.9417 14.0078 11.9903 14.6222 12.21 15.1845C12.4298 15.7469 12.8109 16.2322 13.3059 16.5799Z" fill="white"/>
<path d="M31.7183 36H37L36.9296 26.4557C36.9296 21.5431 33.743 20.0343 31.0141 20.0343C30.077 20.0039 29.1478 20.2138 28.3155 20.6439C27.4831 21.0739 26.7756 21.7098 26.2606 22.4906V20.2097H21.1549V36H26.4366V27.8066C26.4279 27.725 26.4279 27.6426 26.4366 27.561C26.4079 27.1599 26.459 26.7571 26.5869 26.3757C26.7149 25.9943 26.9172 25.6419 27.1822 25.3387C27.4472 25.0355 27.7697 24.7874 28.1312 24.6087C28.4928 24.4301 28.8861 24.3244 29.2887 24.2977C30.662 24.2977 31.7183 25.1924 31.7183 27.6838V36Z" fill="white"/>
</svg>
