<svg width="64" height="64" viewBox="0 0 64 64" fill="none" xmlns="http://www.w3.org/2000/svg">
<circle cx="32" cy="32" r="32" fill="#EBEBEB"/>
<path d="M32.069 37.0042L26.4441 42.629C25.7631 43.2863 24.8536 43.6536 23.9072 43.6536C22.9607 43.6536 22.0512 43.2863 21.3702 42.629C21.0362 42.2964 20.7712 41.901 20.5903 41.4656C20.4095 41.0303 20.3164 40.5635 20.3164 40.0921C20.3164 39.6206 20.4095 39.1539 20.5903 38.7185C20.7712 38.2831 21.0362 37.8878 21.3702 37.5551L26.995 31.9302C27.268 31.6572 27.4214 31.287 27.4214 30.9009C27.4214 30.5149 27.268 30.1446 26.995 29.8717C26.722 29.5987 26.3518 29.4453 25.9657 29.4453C25.5797 29.4453 25.2094 29.5987 24.9365 29.8717L19.3116 35.511C18.1785 36.7444 17.5656 38.3679 17.6011 40.0424C17.6365 41.7169 18.3175 43.313 19.5019 44.4974C20.6862 45.6817 22.2823 46.3627 23.9568 46.3982C25.6313 46.4336 27.2548 45.8208 28.4882 44.6876L34.1276 39.0628C34.4006 38.7898 34.5539 38.4195 34.5539 38.0335C34.5539 37.6474 34.4006 37.2772 34.1276 37.0042C33.8546 36.7312 33.4843 36.5778 33.0983 36.5778C32.7122 36.5778 32.342 36.7312 32.069 37.0042ZM44.5074 19.4918C43.2879 18.2798 41.6384 17.5996 39.9191 17.5996C38.1998 17.5996 36.5503 18.2798 35.3308 19.4918L29.6915 25.1166C29.5563 25.2518 29.4491 25.4123 29.3759 25.5889C29.3028 25.7655 29.2651 25.9548 29.2651 26.1459C29.2651 26.3371 29.3028 26.5264 29.3759 26.703C29.4491 26.8796 29.5563 27.04 29.6915 27.1752C29.8266 27.3104 29.9871 27.4176 30.1637 27.4907C30.3403 27.5639 30.5296 27.6015 30.7208 27.6015C30.9119 27.6015 31.1012 27.5639 31.2778 27.4907C31.4544 27.4176 31.6149 27.3104 31.7501 27.1752L37.3749 21.5504C38.0559 20.8931 38.9654 20.5258 39.9119 20.5258C40.8583 20.5258 41.7678 20.8931 42.4489 21.5504C42.7829 21.883 43.0479 22.2784 43.2287 22.7138C43.4096 23.1491 43.5026 23.6159 43.5026 24.0873C43.5026 24.5588 43.4096 25.0255 43.2287 25.4609C43.0479 25.8963 42.7829 26.2916 42.4489 26.6243L36.824 32.2492C36.6881 32.3839 36.5803 32.5443 36.5067 32.7209C36.4331 32.8976 36.3952 33.0871 36.3952 33.2785C36.3952 33.4698 36.4331 33.6593 36.5067 33.836C36.5803 34.0126 36.6881 34.173 36.824 34.3077C36.9588 34.4436 37.1191 34.5515 37.2958 34.6251C37.4724 34.6987 37.6619 34.7366 37.8533 34.7366C38.0447 34.7366 38.2342 34.6987 38.4108 34.6251C38.5875 34.5515 38.7478 34.4436 38.8826 34.3077L44.5074 28.6684C45.7194 27.4489 46.3996 25.7994 46.3996 24.0801C46.3996 22.3608 45.7194 20.7113 44.5074 19.4918ZM27.314 36.6853C27.4494 36.8196 27.6101 36.9259 27.7867 36.9981C27.9633 37.0702 28.1525 37.1068 28.3433 37.1057C28.534 37.1068 28.7232 37.0702 28.8998 36.9981C29.0764 36.9259 29.2371 36.8196 29.3725 36.6853L36.5051 29.5527C36.7781 29.2797 36.9314 28.9095 36.9314 28.5234C36.9314 28.1374 36.7781 27.7671 36.5051 27.4941C36.2321 27.2212 35.8619 27.0678 35.4758 27.0678C35.0897 27.0678 34.7195 27.2212 34.4465 27.4941L27.314 34.6267C27.1781 34.7614 27.0702 34.9218 26.9966 35.0984C26.923 35.2751 26.8851 35.4646 26.8851 35.656C26.8851 35.8473 26.923 36.0368 26.9966 36.2135C27.0702 36.3901 27.1781 36.5505 27.314 36.6853Z" fill="#3C3C3C"/>
</svg>
