<svg width="64" height="64" viewBox="0 0 64 64" fill="none" xmlns="http://www.w3.org/2000/svg">
<path d="M64 32C64 49.6731 49.6731 64 32 64C14.3269 64 0 49.6731 0 32C0 14.3269 14.3269 0 32 0C49.6731 0 64 14.3269 64 32Z" fill="#26C943"/>
<path d="M12.9606 31.8258C12.9594 35.1789 13.8396 38.4525 15.5126 41.3376L12.8 51.1961L22.9355 48.5506C25.7282 50.0666 28.8721 50.8656 32.0719 50.8669H32.08C42.6168 50.8669 51.1948 42.3305 51.1992 31.8406C51.201 26.7563 49.2138 21.976 45.6043 18.3799C41.9943 14.7838 37.1944 12.8022 32.08 12.8C21.5411 12.8 12.965 21.3353 12.9606 31.8258ZM18.9961 40.8405L18.6177 40.2423C17.0268 37.7244 16.1871 34.8144 16.1882 31.8266C16.1917 23.1076 23.3202 16.0135 32.0857 16.0135C36.3304 16.0152 40.3198 17.6625 43.3206 20.6513C46.3211 23.6402 47.9721 27.6136 47.971 31.839C47.9671 40.5586 40.8385 47.6532 32.0796 47.6532H32.0734C29.2215 47.6516 26.4245 46.8895 23.9853 45.4486L23.4047 45.1061L17.3899 46.6759L18.9961 40.8405Z" fill="url(#paint0_linear_6901_66097)"/>
<path fill-rule="evenodd" clip-rule="evenodd" d="M27.3013 23.8705C26.9434 23.0785 26.5668 23.0627 26.2264 23.0487C25.9478 23.0369 25.6291 23.0377 25.3109 23.0377C24.9922 23.0377 24.4747 23.1567 24.037 23.6326C23.599 24.1085 22.3648 25.2589 22.3648 27.5986C22.3648 29.9384 24.0769 32.1993 24.3155 32.5169C24.5544 32.8339 27.6204 37.7889 32.4758 39.6949C36.5114 41.279 37.3326 40.964 38.2085 40.8846C39.0843 40.8054 41.035 39.7346 41.4329 38.6241C41.8311 37.5137 41.8311 36.562 41.7117 36.3632C41.5923 36.165 41.2737 36.046 40.796 35.8083C40.3181 35.5705 37.9695 34.4199 37.5317 34.2612C37.0937 34.1027 36.7752 34.0235 36.4565 34.4996C36.1381 34.9752 35.2231 36.046 34.9443 36.3632C34.6657 36.681 34.3869 36.7207 33.9092 36.4828C33.4313 36.2442 31.8927 35.7425 30.0675 34.1226C28.6472 32.8622 27.6885 31.3055 27.4097 30.8294C27.1311 30.3539 27.38 30.0963 27.6195 29.8592C27.8341 29.6461 28.0974 29.3039 28.3363 29.0264C28.5747 28.7487 28.6542 28.5505 28.8134 28.2333C28.9729 27.9159 28.8932 27.6381 28.7738 27.4003C28.6542 27.1624 27.7261 24.8109 27.3013 23.8705Z" fill="white"/>
<defs>
<linearGradient id="paint0_linear_6901_66097" x1="32.0005" y1="64.0018" x2="32.0005" y2="0.0019226" gradientUnits="userSpaceOnUse">
<stop stop-color="#F9F9F9"/>
<stop offset="1" stop-color="white"/>
</linearGradient>
</defs>
</svg>
